# xmcd
#
# Track frame offsets:
#	180
#	19536
#	38899
#	56592
#	73833
#	88633
#	104658
#	120567
#	135039
#	156027
#	170716
#	191267
#	217148
#	236049
#	249848
#
# Disc length: 3517 seconds
#
# Revision: 1
# Processed by: cddbd v1.5.1PL2 Copyright (c) Steve Scherf et al.
# Submitted via: audiograbber 1.83.01
#
DISCID=c90dbb0f
DTITLE=Sound Choice - SC8152
DYEAR=1900
DGENRE=Karaoke Country
TTITLE0=Confederate Railroad - When You Leave That Way You Can Never Come Bk 
TTITLE1=Byrd, Tracy - Keeper Of The Stars, The
TTITLE2=Chestnutt, Mark - She Dreams
TTITLE3=Brokop, Lisa - Take That
TTITLE4=Raye, Collin - My Kind Of Girl
TTITLE5=Anderson, John - Bend It Until It Breaks
TTITLE6=Wiggins, John and Audrey  - She'S In The Bedroom Crying
TTITLE7=Hunter, Jesse - Long Legged Hannah (From Butte Montana)
TTITLE8=Keith, Toby  - Upstairs Downtown
TTITLE9=Byrd, Tracy  - Watermelon Crawl 
TTITLE10=Jackson, Alan - Gone Country 
TTITLE11=Carpenter, Mary Chapin - John Doe No. 24
TTITLE12=Berry, John  - You And Only You 
TTITLE13=Carpenter, Mary Chapin - Tender When I Want To Be 
TTITLE14=Holland, Greg - When I Come Back ( I Wanna Be My Dog)
EXTD=
EXTT0=
EXTT1=
EXTT2=
EXTT3=
EXTT4=
EXTT5=
EXTT6=
EXTT7=
EXTT8=
EXTT9=
EXTT10=
EXTT11=
EXTT12=
EXTT13=
EXTT14=
PLAYORDER=
